<svg xmlns="http://www.w3.org/2000/svg" width="216" height="40" fill="none" viewBox="0 0 216 40"><g clip-path="url(#a)"><path fill="#E60013" d="M28.04 36.604c-4.498 4.53-11.858 4.53-16.357 0l-8.309-8.368c-4.499-4.53-4.499-11.942 0-16.472l8.31-8.367c4.498-4.53 11.858-4.53 16.357 0l8.309 8.367c4.496 4.53 4.496 11.942 0 16.472z"/><path fill="#fff" d="M14.934 32.29c-.66 0-1.2-.52-1.225-1.184a1.24 1.24 0 0 1 1.178-1.29 1.23 1.23 0 0 1 1.278 1.185c.028.682-.501 1.259-1.178 1.287h-.053zM19.405 9.45c-.675 0-1.215.213-1.65.65-.941.943-1.438 2.89-1.394 5.482.054 3.194.808 9.461 3.303 12.69.405.52.84.94 1.293 1.24.44.292.934.579 1.703.579q.316 0 .666-.064c1.431-.346 3.223-1.949 4.556-4.082a1.093 1.093 0 0 1 1.52-.35c.248.159.422.404.487.694.066.29.016.585-.141.837-1.686 2.7-3.91 4.596-5.953 5.072a6.149 6.149 0 0 1-1.143.114c-1.318 0-2.248-.504-2.91-.945-.655-.436-1.265-1.017-1.816-1.73-3.512-4.541-3.754-13.058-3.769-14.016-.037-2.267.285-5.337 2.045-7.093.858-.858 1.933-1.292 3.194-1.292h.205c1.265 0 2.34.434 3.198 1.292 1.758 1.756 2.082 4.828 2.045 7.093-.04 2.362-.47 6.936-2.9 11.036a1.11 1.11 0 0 1-1.514.384 1.116 1.116 0 0 1-.38-1.522c1.702-2.87 2.523-6.025 2.588-9.935.044-2.592-.45-4.54-1.393-5.482-.438-.436-.976-.65-1.649-.65h-.193z"/><path fill="#E60013" d="M65 20.287v1.196H48.016v-1.196h7.236v-1.644h-4.013q-.526 0-.91-.346a1.14 1.14 0 0 1-.383-.887v-2.859h10.368v-1.663H49.945v-1.196H62.75v4.075H52.438v1.139q0 .28.114.393.112.113.375.114h10.067v1.232h-5.23v1.644H65zm-6.497 3.57q.442.6 1.021 1.094.582.494 1.237.898.654.402 1.293.7.637.3 1.182.476.542.177.918.216l-.73 1.046a10 10 0 0 1-1.407-.28 13 13 0 0 1-1.828-.636 14 14 0 0 1-1.94-1.02 8.5 8.5 0 0 1-1.743-1.43 8.7 8.7 0 0 1-1.745 1.43q-.976.607-1.94 1.02-.967.41-1.828.635a9.6 9.6 0 0 1-1.425.28l-.713-1.045q.543-.075 1.472-.43.928-.357 1.904-.964a9.7 9.7 0 0 0 1.79-1.43q.816-.824 1.135-1.832h2.7q.206.672.647 1.272M74.149 21.97q.712 0 1.162-.037.45-.036.768-.3v-3.72h-3.544V16.68h3.544v-5.271h2.455v16.71H76.08v-5.197q-.262.15-.742.224-.477.074-1.19.074h-5.043q-.75 0-1.2-.467-.449-.466-.448-1.122v-9.57h7.011v1.253h-4.556v8.036q0 .281.131.448.131.169.469.168h3.638zm6.093-10.561h2.456v16.71h-2.456zM87.646 23.41q-.787 0-1.182-.412-.394-.41-.395-1.102v-9.87h9.149V23.41h-7.574zm.918-1.664q-.001.207.094.317.094.113.355.114h3.75v-8.918h-4.2v8.487zm9.88 6.373V11.41h2.512v16.71zM117.738 17.839h-1.612v10.28h-2.455v-4.803q-.263.15-.722.224a8 8 0 0 1-1.191.074h-5.755q-.583 0-.91-.337a1.16 1.16 0 0 1-.327-.842v-5.44h4.593v-3.758h-4.593v-1.215h7.031v6.225h-4.556v3.551q0 .281.151.448.149.168.469.167h3.899q.732 0 1.163-.037.43-.035.75-.3V11.402h2.455V16.6h1.612v-5.197h2.456v16.71h-2.456v-10.28zM123.174 12.024h10.255v1.216h-3.806v.898q-.001 1.122.338 2.028.338.908.918 1.655.582.747 1.359 1.318.778.57 1.66 1.018l-.844.991q-.488-.15-1.097-.42a8.6 8.6 0 0 1-1.246-.691q-.638-.42-1.256-.972a7.6 7.6 0 0 1-1.125-1.261q-.507.711-1.145 1.298-.638.59-1.293 1.037-.657.449-1.294.748-.638.3-1.142.448l-.825-.972a8.4 8.4 0 0 0 1.575-.963 7.6 7.6 0 0 0 1.378-1.374 6.7 6.7 0 0 0 .975-1.749 5.8 5.8 0 0 0 .366-2.085v-.952h-3.748v-1.216zm5.548 14.245q0 .112.009.224a.4.4 0 0 0 .066.195q.056.085.187.14a1 1 0 0 0 .375.056h9.581v1.233h-11.269q-.487 0-.767-.14a1.1 1.1 0 0 1-.432-.354 1.2 1.2 0 0 1-.196-.476 3 3 0 0 1-.046-.504v-4.095h2.492zm7.237-9.365h-3.562V15.67h3.562v-4.262h2.512v11.813h-2.512zM156.45 13.52h2.868v1.233h-2.868v2.618h2.868v1.233h-2.868v2.522h-2.512V19.8a5.6 5.6 0 0 1-1.276.271 18 18 0 0 1-1.688.066h-7.219q-.543 0-.909-.318-.367-.316-.367-.859v-3.55h6.356v-2.15h-6.356v-1.234h8.811v4.636h-6.337V18.4q0 .28.122.394.12.112.384.113h5.53q.3 0 .685-.009.383-.009.779-.045.392-.037.778-.094.384-.056.702-.167v-7.178h2.513v2.111zm-2.512 9.944h-10.331v-1.216h12.843v6.038h-2.512zM165.562 11.596q1.199 0 2.287.476a4.8 4.8 0 0 1 1.799 1.337h3.806v-2h2.475v11.813h-2.475v-4.074h-4.255a5 5 0 0 1-1.668 1.009 5.6 5.6 0 0 1-3.825.037 5 5 0 0 1-1.584-.899 4.5 4.5 0 0 1-1.105-1.402 3.94 3.94 0 0 1-.421-1.83c0-.673.139-1.303.421-1.851a4.5 4.5 0 0 1 1.105-1.403 5 5 0 0 1 1.584-.898 5.6 5.6 0 0 1 1.856-.317zm0 1.272q-.583 0-1.023.252a2.2 2.2 0 0 0-.74.683q-.3.431-.46 1.009a4.7 4.7 0 0 0-.159 1.252q0 .6.159 1.168.16.57.46 1.018.301.45.74.72.44.27 1.023.271.58 0 1.031-.272.451-.27.759-.72.31-.45.469-1.017.16-.57.159-1.168 0-.672-.159-1.252a3.3 3.3 0 0 0-.46-1.01 2.129 2.129 0 0 0-1.799-.935m.488 13.403q0 .112.009.224a.4.4 0 0 0 .065.195q.056.085.188.14a1 1 0 0 0 .375.056h9.748v1.233h-11.624q-.487 0-.741-.15a1 1 0 0 1-.375-.374 1.2 1.2 0 0 1-.14-.496 7 7 0 0 1-.02-.513v-4.225h2.513v3.908zm4.294-11.627q.112.336.179.692t.065.728q0 .525-.122.98-.12.459-.327.87h3.319v-3.27h-3.114M181.273 11.894h12.468V17.2q-.001.766-.122 1.533t-.478 1.403h3.112v1.233h-7.818v6.73h-2.53v-6.73h-6.674v-1.233h11.699q.206-.653.281-1.374.075-.72.074-1.485v-4.169h-10.012zM207.801 20.006v3.645h7.179v1.233h-16.984V23.65h7.236v-3.645zm-6.665-1.42a10.6 10.6 0 0 0 1.969-1.504 7.8 7.8 0 0 0 1.407-1.814q.533-.962.534-1.915V11.82h2.757v1.533q-.001.954.554 1.924a8 8 0 0 0 1.435 1.822q.881.852 1.978 1.505 1.096.655 2.183.935l-.75 1.046a8.5 8.5 0 0 1-1.64-.448 11.4 11.4 0 0 1-1.828-.879 14.4 14.4 0 0 1-1.79-1.252 8.7 8.7 0 0 1-1.509-1.57 8.3 8.3 0 0 1-1.407 1.496 13.3 13.3 0 0 1-3.684 2.198q-.946.365-1.696.46l-.751-1.047a8.7 8.7 0 0 0 2.24-.952z"/></g><defs><clipPath id="a"><path fill="#fff" d="M0 0h215.135v40H0z"/></clipPath></defs></svg>